<svg width="14" height="14" viewBox="0 0 14 14" fill="none" xmlns="http://www.w3.org/2000/svg">
<path d="M8.38396 1.11253L8.5005 1.2395C8.50076 1.23979 8.50102 1.24008 8.50128 1.24037C8.54278 1.28647 8.57926 1.36255 8.58474 1.45343L8.57232 1.59926L7.97486 4.76073L7.80681 5.65H8.71182H12.7273C12.9474 5.65 13.25 5.87535 13.25 6.3V7.7C13.25 7.78785 13.2357 7.86836 13.2074 7.95073L11.2902 12.8738L11.2902 12.8738L11.2877 12.8803C11.1922 13.1324 10.9944 13.25 10.8182 13.25H5.09091C4.87079 13.25 4.56818 13.0247 4.56818 12.6V5.6C4.56818 5.39668 4.64163 5.23209 4.74165 5.12503L4.74171 5.12509L4.74897 5.11708L8.38396 1.11253ZM1.79545 6.35V13.25H0.75V6.35H1.79545Z" stroke="#013C74" stroke-width="1.5"/>
</svg>
