<?xml version="1.0" encoding="UTF-8"?><svg id="Layer_2" xmlns="http://www.w3.org/2000/svg" viewBox="0 0 980.43 144.02"><defs><style>.cls-1{fill:#002f49;}</style></defs><g id="Layer_1-2"><g><path class="cls-1" d="m68.9,0c41.01,0,68.9,31.2,68.9,71.03s-27.89,72.99-68.9,72.99S0,112.04,0,71.03,27.89,0,68.9,0Zm0,120.08c25.12,0,43.25-21.19,43.25-49.05s-18.14-47.09-43.25-47.09-42.21,20.41-42.21,47.09,17.1,49.05,42.21,49.05Z"/><path class="cls-1" d="m159.54,67.1c0-2.94-1.57-4.32-4.32-4.32h-7.85v-21.19h22.76c8.83,0,13.34,3.73,13.34,12.17v5.89c0,3.73-.39,6.28-.39,6.28h.39c4.51-14.32,16.48-25.7,31.79-25.7,2.16,0,4.51.39,4.51.39v24.53s-2.55-.39-6.08-.39c-10.6,0-22.76,6.08-27.27,21-1.37,4.91-2.16,10.4-2.16,16.29v39.63h-24.72v-74.56Z"/><path class="cls-1" d="m276.48,39.24c12.95,0,36.3,5.3,36.3,22.56v11.77h-21.98v-5.49c0-5.49-8.24-7.85-14.32-7.85-17.27,0-29.63,13.15-29.63,31.2,0,20.41,15.11,30.81,31.2,30.81,17.07,0,29.63-13.54,29.63-13.54l10.4,17.27s-14.91,18.05-42.19,18.05c-32.96,0-54.15-23.35-54.15-52.39s20.41-52.39,54.74-52.39Z"/><path class="cls-1" d="m382.04,78.88h3.14v-.78c0-14.32-5.69-19.62-18.44-19.62-4.51,0-13.34,1.18-13.34,6.67v5.3h-23.15v-10.6c0-18.64,26.29-20.6,36.69-20.6,33.36,0,43.17,17.46,43.17,39.83v37.28c0,2.75,1.57,4.32,4.32,4.32h7.85v20.99h-22.37c-9.22,0-12.75-5.1-12.75-10.99,0-2.55.2-4.32.2-4.32h-.39s-7.65,17.66-30.22,17.66c-17.86,0-34.14-11.18-34.14-31.2,0-31.39,43.17-33.94,59.45-33.94Zm-19.23,45.72c13.34,0,22.76-14.13,22.76-26.29v-2.35h-4.32c-12.95,0-33.55,1.77-33.55,15.7,0,6.67,4.91,12.95,15.11,12.95Z"/><path class="cls-1" d="m437.76,109.88s12.75,14.72,29.82,14.72c7.65,0,13.54-3.14,13.54-9.81,0-14.13-52.78-13.93-52.78-46.31,0-20.01,18.05-29.24,38.85-29.24,13.54,0,35.12,4.51,35.12,20.8v10.4h-21.98v-4.91c0-4.71-7.06-7.06-12.56-7.06-8.83,0-14.91,3.14-14.91,9.03,0,15.7,53.17,12.56,53.17,45.91,0,18.84-16.68,30.61-38.46,30.61-27.47,0-41.6-17.86-41.6-17.86l11.77-16.29Z"/><path class="cls-1" d="m566.95,39.24c30.61,0,52.87,21.78,52.87,52.39s-22.26,52.39-52.87,52.39-52.67-21.58-52.67-52.39,22.26-52.39,52.67-52.39Zm0,83.59c16.29,0,27.75-12.56,27.75-31.2s-11.47-31.2-27.75-31.2-27.56,12.75-27.56,31.2,11.47,31.2,27.56,31.2Z"/><path class="cls-1" d="m637.07,67.1c0-2.94-1.57-4.32-4.32-4.32h-7.85v-21.19h23.74c9.22,0,13.15,4.12,13.15,13.15v46.11c0,12.17,3.14,20.41,15.5,20.41,18.05,0,28.06-15.89,28.06-33.75v-45.91h24.92v74.76c0,2.75,1.57,4.32,4.32,4.32h7.85v20.99h-22.96c-8.63,0-13.15-4.12-13.15-11.18v-2.75c0-2.35.2-4.51.2-4.51h-.39c-4.71,10.4-17.27,20.8-34.53,20.8-21.39,0-34.53-10.79-34.53-38.07v-38.85Z"/><path class="cls-1" d="m757.74,67.1c0-2.94-1.57-4.32-4.32-4.32h-7.85v-21.19h22.96c8.83,0,13.15,4.12,13.15,11.18v2.94c0,2.16-.39,4.32-.39,4.32h.39c4.32-8.44,15.11-20.8,35.32-20.8,22.17,0,34.93,11.58,34.93,38.06v39.05c0,2.75,1.57,4.32,4.32,4.32h7.85v20.99h-23.74c-9.42,0-13.34-3.92-13.34-13.34v-45.91c0-12.17-3.14-20.41-15.7-20.41-13.34,0-23.35,8.44-26.88,20.41-1.37,4.12-1.96,8.63-1.96,13.34v45.91h-24.72v-74.56Z"/><path class="cls-1" d="m914.51,39.24c21.78,0,28.84,12.17,28.84,12.17h.39s-.2-2.55-.2-5.89v-17.66c0-2.94-1.57-4.32-4.32-4.32h-7.85V2.35h23.74c9.22,0,13.34,4.12,13.34,13.34v100.66c0,2.75,1.57,4.32,4.32,4.32h7.65v20.99h-22.96c-9.03,0-12.36-4.32-12.36-10.2v-3.73h-.39s-8.24,16.29-31.2,16.29c-27.08,0-44.54-21.39-44.54-52.39s19.03-52.39,45.52-52.39Zm29.63,52.19c0-15.5-8.04-30.81-24.72-30.81-13.73,0-25.12,11.18-25.12,31s10.01,31.39,24.72,31.39c12.95,0,25.12-9.42,25.12-31.59Z"/><polygon class="cls-1" points="90.27 72.01 57.9 41.03 57.9 72.01 57.9 102.99 90.27 72.01"/></g></g></svg>