<svg xmlns="http://www.w3.org/2000/svg" viewBox="0 0 229.54 155.5"><defs><style>.cls-1{fill:none;stroke:#d81e41;stroke-linecap:round;stroke-linejoin:round;stroke-width:13px;}.cls-2{fill:#d81e41;}</style></defs><g id="Layer_2" data-name="Layer 2"><g id="Layer_1-2" data-name="Layer 1"><path class="cls-1" d="M158.86,34.73l-16-24A9.48,9.48,0,0,0,134,6.55C122.19,7.79,94.91,13,73.16,34.73l9.52,19.05"/><path class="cls-1" d="M42.84,98.16c-5.84,3.53-12.68,8.14-17.3,12.75-9.52,9.52-19,9.52-19,0S16,82.34,16,82.34,6.5,63.3,6.5,53.78s9.52-9.53,19,0c6.59,6.59,17.75,13.18,24,16.61-1.79.91-3.43,1.76-4.94,2.56C22.36,83.7,37.38,94.82,42.84,98.16Z"/><path class="cls-1" d="M219.51,96.45c-11.3,16.75-36.61,43-70.18,43-10.64,0-21.91-2-33.06-5.3a223.16,223.16,0,0,1-34-13.32A293.49,293.49,0,0,1,44.59,99.15s-.69-.35-1.75-1h0C37.38,94.82,22.36,83.7,44.59,73c1.51-.8,3.15-1.65,4.94-2.56,4-2,8.65-4.36,14.1-7.09,38.09-19,57.14-28.57,85.7-28.57,0,0,45.2,9.46,68.85,37A20.44,20.44,0,0,1,219.51,96.45Z"/><path class="cls-1" d="M116.27,134.18C110.05,139.79,98.82,149,92.2,149c-9.52,0-28.57-9.52-28.57-9.52l18.62-18.62A223.16,223.16,0,0,0,116.27,134.18Z"/><path class="cls-1" d="M177.9,44.25s-28.57,9.53-28.57,38.09S177.9,130,177.9,130"/><circle class="cls-2" cx="187.42" cy="82.34" r="9.52"/></g></g></svg>