<svg xmlns="http://www.w3.org/2000/svg" viewBox="0 0 315 120"><defs><style>.cls-1{fill:none;stroke:#014f70;stroke-linecap:round;stroke-linejoin:round;stroke-width:15px;}</style></defs><g id="Layer_2" data-name="Layer 2"><g id="Layer_1-2" data-name="Layer 1"><path class="cls-1" d="M262.5,22.5c-15,0-30-15-30-15s-15,15-30,15"/><path class="cls-1" d="M202.5,22.5c-15,0-30-15-30-15s-15,15-30,15"/><path class="cls-1" d="M142.5,22.5c-15,0-30-15-30-15s-15,15-30,15"/><path class="cls-1" d="M82.5,22.5c-15,0-30-15-30-15s-15,15-30,15"/><path class="cls-1" d="M307.5,67.5c-15,0-30-15-30-15s-15,15-30,15"/><path class="cls-1" d="M247.5,67.5c-15,0-30-15-30-15s-15,15-30,15"/><path class="cls-1" d="M187.5,67.5c-15,0-30-15-30-15s-15,15-30,15"/><path class="cls-1" d="M127.5,67.5c-15,0-30-15-30-15s-15,15-30,15"/><path class="cls-1" d="M247.5,112.5c-15,0-30-15-30-15s-15,15-30,15"/><path class="cls-1" d="M187.5,112.5c-15,0-30-15-30-15s-15,15-30,15"/><path class="cls-1" d="M127.5,112.5c-15,0-30-15-30-15s-15,15-30,15"/><path class="cls-1" d="M67.5,112.5c-15,0-30-15-30-15s-15,15-30,15"/></g></g></svg>