<svg xmlns="http://www.w3.org/2000/svg" viewBox="0 0 255 154.89"><defs><style>.cls-1,.cls-3{fill:none;stroke:#6e2a81;stroke-linejoin:round;stroke-width:15px;}.cls-1{stroke-linecap:round;}.cls-2{fill:#6f2b82;}</style></defs><g id="Layer_2" data-name="Layer 2"><g id="Layer_1-2" data-name="Layer 1"><path class="cls-1" d="M206,90.74a30.75,30.75,0,0,1-6.86,15.42c-4.42,5.39-11.66,15.81-11.66,26.23,0,8.15-4.43,11.88-8.48,13.57-11.7-3.75-21.52-13.57-21.52-13.57s-15,15-30,15-30-15-30-15S87.68,142.21,76,146c-4-1.69-8.48-5.42-8.48-13.57,0-10.42-7.24-20.84-11.66-26.23A30.75,30.75,0,0,1,49,90.74c-1.1-8.43,1.27-18.35,18.52-18.35a110.7,110.7,0,0,0,20-2,168.18,168.18,0,0,0,31-9.1,24.4,24.4,0,0,1,18.06,0,168.18,168.18,0,0,0,31,9.1,110.7,110.7,0,0,0,20,2C204.75,72.39,207.12,82.31,206,90.74Z"/><circle class="cls-2" cx="90" cy="109.89" r="7.5"/><circle class="cls-2" cx="165" cy="109.89" r="7.5"/><path class="cls-3" d="M167.5,32.39v38a168.18,168.18,0,0,1-31-9.1,24.4,24.4,0,0,0-18.06,0,168.18,168.18,0,0,1-31,9.1v-38Z"/><polygon class="cls-3" points="187.5 7.5 167.5 32.39 87.5 32.39 67.5 7.5 187.5 7.5"/><path class="cls-1" d="M247.5,147.39c-15,0-30-15-30-15s-15,15-30,15"/><path class="cls-1" d="M187.5,147.39c-15,0-30-15-30-15s-15,15-30,15"/><path class="cls-1" d="M127.5,147.39c-15,0-30-15-30-15s-15,15-30,15"/><path class="cls-1" d="M67.5,147.39c-15,0-30-15-30-15s-15,15-30,15"/></g></g></svg>