<?xml version="1.0" encoding="UTF-8"?>
<svg viewBox="0 0 128 128" version="1.0" xmlns="http://www.w3.org/2000/svg">
    <style>
        .dynamic {
            fill: black;
        }

        @media (prefers-color-scheme: dark) {
            .dynamic {
                fill: white;
            }
        }
    </style>

    <g id="group1">
        <path
            d="M 63.99994,4 C 98.170193,4 121.40863,29.996389 121.40863,63.183447 121.40863,96.370506 98.170193,124 63.99994,124 29.829686,124 6.5912462,97.3537 6.5912462,63.183447 6.5912462,29.013193 29.829686,4 63.99994,4 Z m 0,100.05277 c 20.930426,0 36.03667,-17.655881 36.03667,-40.869323 0,-23.213443 -15.114576,-39.236217 -36.03667,-39.236217 -20.922094,0 -35.170116,17.005971 -35.170116,39.236217 0,22.230245 14.248022,40.869323 35.170116,40.869323 z"
            id="path1" class="dynamic" />
        <polygon points="57.9,72.01 57.9,102.99 90.27,72.01 57.9,41.03 " id="polygon1"
            transform="matrix(0.83321761,0,0,0.83321761,6.5912462,4)" class="dynamic" />
    </g>

</svg>