<svg width="13" height="15" viewBox="0 0 13 15" fill="none" xmlns="http://www.w3.org/2000/svg">
<path d="M10.875 10.356C10.343 10.356 9.867 10.566 9.503 10.895L4.512 7.99C4.547 7.829 4.575 7.668 4.575 7.5C4.575 7.332 4.547 7.171 4.512 7.01L9.447 4.133C9.825 4.483 10.322 4.7 10.875 4.7C12.037 4.7 12.975 3.762 12.975 2.6C12.975 1.438 12.037 0.5 10.875 0.5C9.713 0.5 8.775 1.438 8.775 2.6C8.775 2.768 8.803 2.929 8.838 3.09L3.903 5.967C3.525 5.617 3.028 5.4 2.475 5.4C1.313 5.4 0.375 6.338 0.375 7.5C0.375 8.662 1.313 9.6 2.475 9.6C3.028 9.6 3.525 9.383 3.903 9.033L8.887 11.945C8.852 12.092 8.831 12.246 8.831 12.4C8.831 13.527 9.748 14.444 10.875 14.444C12.002 14.444 12.919 13.527 12.919 12.4C12.919 11.273 12.002 10.356 10.875 10.356Z" fill="#013C74"/>
</svg>
